<?xml version="1.0" encoding="UTF-8" standalone="no"?>
<!-- Created with Inkscape (http://www.inkscape.org/) -->

<svg
   version="1.1"
   id="svg352"
   xml:space="preserve"
   width="240"
   height="88"
   viewBox="0 0 240 88"
   sodipodi:docname="logoPagVec.svg"
   inkscape:version="1.1.1 (3bf5ae0d25, 2021-09-20)"
   inkscape:export-filename="C:\Users\usuario\Documents\Dany\Hot Wings\LOGO\LOGO Final\logoPagVec.png"
   inkscape:export-xdpi="96.688522"
   inkscape:export-ydpi="96.688522"
   xmlns:inkscape="http://www.inkscape.org/namespaces/inkscape"
   xmlns:sodipodi="http://sodipodi.sourceforge.net/DTD/sodipodi-0.dtd"
   xmlns="http://www.w3.org/2000/svg"
   xmlns:svg="http://www.w3.org/2000/svg"><defs
     id="defs356"><clipPath
       clipPathUnits="userSpaceOnUse"
       id="clipPath366"><path
         d="M 0,366.252 H 590.778 V 0 H 0 Z"
         id="path364" /></clipPath><clipPath
       clipPathUnits="userSpaceOnUse"
       id="clipPath157"><path
         d="M 0,366.252 H 590.778 V 0 H 0 Z"
         id="path155" /></clipPath></defs><sodipodi:namedview
     id="namedview354"
     pagecolor="#ffffff"
     bordercolor="#666666"
     borderopacity="1.0"
     inkscape:pageshadow="2"
     inkscape:pageopacity="0.0"
     inkscape:pagecheckerboard="0"
     showgrid="false"
     inkscape:zoom="1.28"
     inkscape:cx="-58.203125"
     inkscape:cy="-76.171875"
     inkscape:window-width="1366"
     inkscape:window-height="705"
     inkscape:window-x="-8"
     inkscape:window-y="-8"
     inkscape:window-maximized="1"
     inkscape:current-layer="g2245"
     units="px"
     width="236px"
     height="83px" /><g
     id="g358"
     inkscape:groupmode="layer"
     inkscape:label="LOGO HOT WINGS CURVAS"
     transform="matrix(1.3333333,0,0,-1.3333333,0,488.336)"><g
       id="g396"
       transform="translate(265.3665,162.2805)" /><g
       id="g2031"
       transform="matrix(0.26916059,0,0,0.26470455,-9.6845356,284.95825)"
       inkscape:export-filename="C:\Users\usuario\Documents\Dany\Hot Wings\LOGO\LOGO Final\logoHWpag.png"
       inkscape:export-xdpi="98.533798"
       inkscape:export-ydpi="98.533798"><g
         id="g488"
         transform="translate(158.6802,210.6452)"><g
           id="g2245"
           transform="translate(560.43681,176.50811)"><g
             id="g2335"
             transform="matrix(0.27385565,0,0,0.25982269,-103.42342,-220.73661)"><g
               id="g239"
               transform="matrix(3.7152542,0,0,3.7777968,-1299.6746,-47.16925)"><path
                 d="m 0,0 c 0,0 -25.987,-1.624 -31.672,44.666 0,0 4.06,-5.685 9.745,-6.497 0,0 -5.685,12.181 11.37,26.799 0,0 8.121,8.933 -2.437,21.927 0,0 13.806,0.812 16.242,-14.618 0,0 2.843,-4.872 8.121,-2.842 0,0 -0.812,8.121 -3.248,10.557 0,0 -6.903,18.679 8.121,23.957 0,0 -3.654,-14.212 11.776,-22.739 15.43,-8.527 13.805,-19.896 13.805,-19.896 0,0 3.655,-12.182 12.994,-0.406 0,0 4.06,0 -2.842,-20.303 0,0 6.902,0 7.715,4.467 0,0 4.466,-35.733 -36.951,-45.478 0,0 21.521,6.091 12.994,29.642 0,0 1.624,-17.867 -19.085,-21.927 0,0 15.43,19.084 -12.994,19.084 0,0 -26.393,-2.436 -3.654,-26.393"
                 style="fill:#f9c000;fill-opacity:1;fill-rule:nonzero;stroke:none"
                 id="path241" /></g><g
               id="g243"
               transform="matrix(3.7152542,0,0,3.7777968,-1239.3315,345.52933)"><path
                 d="m 0,0 c 0,0 -3.654,-14.212 11.775,-22.739 15.43,-8.527 13.806,-19.896 13.806,-19.896 0,0 3.655,-12.182 12.994,-0.406 0,0 4.06,0 -2.842,-20.303 0,0 6.902,0 7.715,4.467 0,0 4.466,-35.733 -36.951,-45.478 0,0 21.521,6.091 12.993,29.642 0,0 1.625,-17.867 -19.084,-21.927 0,0 15.43,19.084 -12.994,19.084 0,0 -26.393,-2.436 -3.654,-26.393 0,0 -25.987,-1.624 -31.672,44.665 0,0 4.06,-5.684 9.745,-6.496 0,0 -5.214,11.172 9.324,24.957 0,0 4.652,3.046 4.948,-1.393 0,0 17.754,5.327 8.877,-6.509 0,0 19.53,0.887 18.346,21.896 0,0 7.694,-5.622 8.582,-14.795 0,0 3.846,6.214 -5.918,19.53 0,0 -11.684,9.567 -5.99,22.094"
                 style="fill:#eb7c00;fill-opacity:1;fill-rule:nonzero;stroke:none"
                 id="path245" /></g><g
               id="g247"
               transform="matrix(3.7152542,0,0,3.7777968,-1158.4463,241.94101)"><path
                 d="m 0,0 c 0,0 -1.973,5.918 -10.258,13.809 -8.285,7.891 1.578,18.938 1.578,18.938 0,0 -2.762,-8.68 1.973,-16.965 C -1.973,7.496 -1.973,9.074 0,0"
                 style="fill:#f5c400;fill-opacity:1;fill-rule:nonzero;stroke:none"
                 id="path249" /></g><g
               id="g251"
               transform="matrix(3.7152542,0,0,3.7777968,-1133.5277,231.50749)"><path
                 d="m 0,0 c 0,0 -1.973,2.762 -0.789,9.074 1.184,6.313 -0.395,6.707 -0.395,6.707 0,0 4.735,-0.789 2.368,-9.863 C -1.184,-3.156 0,0 0,0"
                 style="fill:#eb7c00;fill-opacity:1;fill-rule:nonzero;stroke:none"
                 id="path253" /></g><g
               id="g255"
               transform="matrix(3.7152542,0,0,3.7777968,-1395.9072,122.70203)"><path
                 d="m 0,0 c 0,0 -3.551,0.789 -1.973,8.68 1.578,7.891 -1.183,6.707 -1.183,6.707 0,0 4.734,1.973 3.945,-9.074 C 0,-4.734 -0.789,3.156 0,0"
                 style="fill:#e63a00;fill-opacity:1;fill-rule:nonzero;stroke:none"
                 id="path257" /></g><g
               id="g259"
               transform="matrix(3.7152542,0,0,3.7777968,-1294.7664,288.14574)"><path
                 d="m 0,0 c 0,0 -3.551,1.184 -1.578,11.836 0,0 0.394,4.34 -1.184,6.313 0,0 4.34,-0.789 3.551,-9.469 C 0.789,8.68 -1.184,3.156 0,0"
                 style="fill:#f5c400;fill-opacity:1;fill-rule:nonzero;stroke:none"
                 id="path261" /></g><g
               id="g263"
               transform="matrix(3.7152542,0,0,3.7777968,-1413.7006,97.0557)"><path
                 d="m 0,0 c 7.198,-39.645 30.691,-38.177 30.691,-38.177 -22.739,23.957 3.655,26.393 3.655,26.393 28.423,0 12.993,-19.084 12.993,-19.084 20.709,4.06 19.085,21.927 19.085,21.927 8.527,-23.551 -12.994,-29.642 -12.994,-29.642 11.353,2.671 19.259,7.295 24.753,12.601 0,0 8.276,7.126 -0.01,33.954 0,0 0.395,-8.679 -5.918,-11.441 0,0 1.973,17.754 -19.332,25.645 0,0 4.734,-17.755 -37.087,-20.911 0,0 4.735,-3.551 14.204,-1.972 0,0 -11.442,-8.68 -28.407,-0.395 z"
                 style="fill:#e63a00;fill-opacity:1;fill-rule:nonzero;stroke:none"
                 id="path265" /></g><g
               id="g267"
               transform="matrix(3.7152542,0,0,3.7777968,-1260.4624,28.584641)"><path
                 d="m 0,0 c 0,0 -5.001,-8.327 -1.368,-12.569 0,0 3.481,-6.21 2.722,-10.904 0,0 -1.675,-21.656 12.558,-27.113 0,0 19.683,-11.82 51.504,36.022 0,0 9.082,-10.604 20.287,-14.243 0,0 14.233,-5.458 27.26,4.229 0,0 7.12,4.995 -1.359,8.027 0,0 -14.386,3.489 -28.162,14.852 0,0 10.903,-2.427 13.632,7.264 0,0 -4.996,1.971 -11.355,6.819 0,0 -12.11,12.423 -20.439,12.275 0,0 -14.083,2.277 -25.144,-12.711 0,0 -4.849,-5.476 -7.272,-6.08 0,0 -2.063,1.605 -4.293,3.278 0,0 -10.039,10.829 -18.126,2.185 z"
                 style="fill:#1d1d1b;fill-opacity:1;fill-rule:nonzero;stroke:none"
                 id="path269" /></g><g
               id="g271"
               transform="matrix(3.7152542,0,0,3.7777968,-1260.4624,28.584641)"><path
                 d="m 0,0 c 0,0 -5.001,-8.327 -1.368,-12.569 0,0 3.481,-6.21 2.722,-10.904 0,0 -1.675,-21.656 12.558,-27.113 0,0 19.683,-11.82 51.504,36.022 0,0 9.082,-10.604 20.287,-14.243 0,0 14.233,-5.458 27.26,4.229 0,0 7.12,4.995 -1.359,8.027 0,0 -14.386,3.489 -28.162,14.852 0,0 10.903,-2.427 13.632,7.264 0,0 -4.996,1.971 -11.355,6.819 0,0 -12.11,12.423 -20.439,12.275 0,0 -14.083,2.277 -25.144,-12.711 0,0 -4.849,-5.476 -7.272,-6.08 0,0 -2.063,1.605 -4.293,3.278 0,0 -10.039,10.829 -18.126,2.185 z"
                 style="fill:none;stroke:#1d1d1b;stroke-width:0.883;stroke-linecap:round;stroke-linejoin:round;stroke-miterlimit:10;stroke-dasharray:none;stroke-opacity:1"
                 id="path273" /></g><g
               id="g275"
               transform="matrix(3.7152542,0,0,3.7777968,-1245.2729,25.14571)"><path
                 d="m 0,0 c 0,0 -3.939,-4.844 -2.275,-8.934 0,0 1.966,-5.301 1.814,-7.27 0,0 3.183,5.299 4.697,4.39 0,0 -10.913,-23.317 6.498,-33.773 0,0 16.048,-12.727 49.08,35.417 0,0 -2.421,4.544 2.125,12.114 0,0 -3.639,-11.205 9.533,-20.145 0,0 -0.755,5.604 2.275,8.934 0,0 -3.941,-9.993 9.535,-14.996 0,0 -2.724,5.756 -1.36,8.027 0,0 1.814,-7.27 8.78,-9.393 0,0 8.329,0.148 16.66,5.445 0,0 0.909,1.514 -2.271,1.364 0,0 -24.076,6.219 -31.945,22.274 0,0 10.751,-4.396 15.144,1.206 0,0 -8.781,4.243 -14.533,11.818 0,0 -15.895,14.695 -34.833,-4.833 0,0 -11.97,-16.502 -25.598,-13.468 0,0 9.238,1.663 12.421,6.962 0,0 -10.746,10.448 -14.371,6.544 C 11.376,11.683 3.682,6.163 0,0"
                 style="fill:#ffffff;fill-opacity:1;fill-rule:nonzero;stroke:none"
                 id="path277" /></g><g
               id="g279"
               transform="matrix(3.7152542,0,0,3.7777968,-1245.2729,25.14571)"><path
                 d="m 0,0 c 0,0 -3.939,-4.844 -2.275,-8.934 0,0 1.966,-5.301 1.814,-7.27 0,0 3.183,5.299 4.697,4.39 0,0 -10.913,-23.317 6.498,-33.773 0,0 16.048,-12.727 49.08,35.417 0,0 -2.421,4.544 2.125,12.114 0,0 -3.639,-11.205 9.533,-20.145 0,0 -0.755,5.604 2.275,8.934 0,0 -3.941,-9.993 9.535,-14.996 0,0 -2.724,5.756 -1.36,8.027 0,0 1.814,-7.27 8.78,-9.393 0,0 8.329,0.148 16.66,5.445 0,0 0.909,1.514 -2.271,1.364 0,0 -24.076,6.219 -31.945,22.274 0,0 10.751,-4.396 15.144,1.206 0,0 -8.781,4.243 -14.533,11.818 0,0 -15.895,14.695 -34.833,-4.833 0,0 -11.97,-16.502 -25.598,-13.468 0,0 9.238,1.663 12.421,6.962 0,0 -10.746,10.448 -14.371,6.544 C 11.376,11.683 3.682,6.163 0,0 Z"
                 style="fill:none;stroke:#ffffff;stroke-width:0.883;stroke-linecap:round;stroke-linejoin:round;stroke-miterlimit:10;stroke-dasharray:none;stroke-opacity:1"
                 id="path281" /></g><g
               id="g283"
               transform="matrix(3.7152542,0,0,3.7777968,-1214.9312,-78.989256)"><path
                 d="m 0,0 c 0,0 4.987,-27.715 39.077,13.614 0,0 -8.338,-20.744 -25.453,-26.946 0,0 -16.508,-3.477 -13.624,13.332"
                 style="fill:#1d1d1b;fill-opacity:1;fill-rule:nonzero;stroke:none"
                 id="path285" /></g><g
               id="g287"
               transform="matrix(3.7152542,0,0,3.7777968,-1245.2859,28.584641)"><path
                 d="m 0,0 c 0,0 5.001,-8.327 1.368,-12.569 0,0 -3.481,-6.21 -2.722,-10.904 0,0 1.675,-21.656 -12.558,-27.113 0,0 -19.683,-11.82 -51.504,36.022 0,0 -9.082,-10.604 -20.287,-14.243 0,0 -14.233,-5.458 -27.26,4.229 0,0 -7.12,4.995 1.359,8.027 0,0 14.386,3.489 28.162,14.852 0,0 -10.903,-2.427 -13.632,7.264 0,0 4.996,1.971 11.355,6.819 0,0 12.11,12.423 20.439,12.275 0,0 14.083,2.277 25.144,-12.711 0,0 4.849,-5.476 7.272,-6.08 0,0 2.063,1.605 4.293,3.278 0,0 10.039,10.829 18.126,2.185 z"
                 style="fill:#1d1d1b;fill-opacity:1;fill-rule:nonzero;stroke:none"
                 id="path289" /></g><g
               id="g291"
               transform="matrix(3.7152542,0,0,3.7777968,-1245.2859,28.584641)"><path
                 d="m 0,0 c 0,0 5.001,-8.327 1.368,-12.569 0,0 -3.481,-6.21 -2.722,-10.904 0,0 1.675,-21.656 -12.558,-27.113 0,0 -19.683,-11.82 -51.504,36.022 0,0 -9.082,-10.604 -20.287,-14.243 0,0 -14.233,-5.458 -27.26,4.229 0,0 -7.12,4.995 1.359,8.027 0,0 14.386,3.489 28.162,14.852 0,0 -10.903,-2.427 -13.632,7.264 0,0 4.996,1.971 11.355,6.819 0,0 12.11,12.423 20.439,12.275 0,0 14.083,2.277 25.144,-12.711 0,0 4.849,-5.476 7.272,-6.08 0,0 2.063,1.605 4.293,3.278 0,0 10.039,10.829 18.126,2.185 z"
                 style="fill:none;stroke:#1d1d1b;stroke-width:0.883;stroke-linecap:round;stroke-linejoin:round;stroke-miterlimit:10;stroke-dasharray:none;stroke-opacity:1"
                 id="path293" /></g><g
               id="g295"
               transform="matrix(3.7152542,0,0,3.7777968,-1260.4754,25.14571)"><path
                 d="m 0,0 c 0,0 3.939,-4.844 2.275,-8.934 0,0 -1.966,-5.301 -1.814,-7.27 0,0 -3.183,5.299 -4.697,4.39 0,0 10.913,-23.317 -6.498,-33.773 0,0 -16.048,-12.727 -49.08,35.417 0,0 2.421,4.544 -2.125,12.114 0,0 3.639,-11.205 -9.533,-20.145 0,0 0.755,5.604 -2.275,8.934 0,0 3.941,-9.993 -9.535,-14.996 0,0 2.724,5.756 1.36,8.027 0,0 -1.814,-7.27 -8.78,-9.393 0,0 -8.329,0.148 -16.66,5.445 0,0 -0.909,1.514 2.271,1.364 0,0 24.076,6.219 31.945,22.274 0,0 -10.751,-4.396 -15.145,1.206 0,0 8.782,4.243 14.534,11.818 0,0 15.895,14.695 34.833,-4.833 0,0 11.97,-16.502 25.598,-13.468 0,0 -9.238,1.663 -12.421,6.962 0,0 10.746,10.448 14.371,6.544 0,0 7.694,-5.52 11.376,-11.683"
                 style="fill:#ffffff;fill-opacity:1;fill-rule:nonzero;stroke:none"
                 id="path297" /></g><g
               id="g299"
               transform="matrix(3.7152542,0,0,3.7777968,-1260.4754,25.14571)"><path
                 d="m 0,0 c 0,0 3.939,-4.844 2.275,-8.934 0,0 -1.966,-5.301 -1.814,-7.27 0,0 -3.183,5.299 -4.697,4.39 0,0 10.913,-23.317 -6.498,-33.773 0,0 -16.048,-12.727 -49.08,35.417 0,0 2.421,4.544 -2.125,12.114 0,0 3.639,-11.205 -9.533,-20.145 0,0 0.755,5.604 -2.275,8.934 0,0 3.941,-9.993 -9.535,-14.996 0,0 2.724,5.756 1.36,8.027 0,0 -1.814,-7.27 -8.78,-9.393 0,0 -8.329,0.148 -16.66,5.445 0,0 -0.909,1.514 2.271,1.364 0,0 24.076,6.219 31.945,22.274 0,0 -10.751,-4.396 -15.145,1.206 0,0 8.782,4.243 14.534,11.818 0,0 15.895,14.695 34.833,-4.833 0,0 11.97,-16.502 25.598,-13.468 0,0 -9.238,1.663 -12.421,6.962 0,0 10.746,10.448 14.371,6.544 0,0 7.694,-5.52 11.376,-11.683 z"
                 style="fill:none;stroke:#ffffff;stroke-width:0.883;stroke-linecap:round;stroke-linejoin:round;stroke-miterlimit:10;stroke-dasharray:none;stroke-opacity:1"
                 id="path301" /></g><g
               id="g303"
               transform="matrix(3.7152542,0,0,3.7777968,-1290.8171,-78.989256)"><path
                 d="m 0,0 c 0,0 -4.987,-27.715 -39.077,13.614 0,0 8.338,-20.744 25.453,-26.946 0,0 16.508,-3.477 13.624,13.332"
                 style="fill:#1d1d1b;fill-opacity:1;fill-rule:nonzero;stroke:none"
                 id="path305" /></g><g
               id="g307"
               transform="matrix(3.7152542,0,0,3.7777968,-1265.7897,33.465181)"><path
                 d="m 0,0 c 0,0 1.301,-5.391 6.692,0 l 4.834,-11.154 -6.371,-7.252 H 1.612 l -4.215,9.483 z"
                 style="fill:#ffffff;fill-opacity:1;fill-rule:nonzero;stroke:none"
                 id="path309" /></g><g
               id="g311"
               transform="matrix(3.7152542,0,0,3.7777968,-813.36126,12.58945)"><path
                 d="m 0,0 -8.289,-0.268 1.407,7.839 -5.189,-0.167 -1.408,-7.839 -8.289,-0.266 4.461,25.037 8.289,0.267 -2.504,-14.08 5.19,0.167 2.504,14.08 8.29,0.266 z"
                 style="fill:#c40d0e;fill-opacity:1;fill-rule:nonzero;stroke:none"
                 id="path313" /></g><g
               id="g315"
               transform="matrix(3.7152542,0,0,3.7777968,-767.47935,78.96646)"><path
                 d="m 0,0 -2.635,-14.516 4.145,0.133 2.636,14.516 z m -7.772,-0.611 c 0.162,0.92 0.588,1.677 1.279,2.278 0.69,0.6 1.491,0.913 2.405,0.942 L 9.175,3.036 c 0.912,0.029 1.6,-0.235 2.063,-0.799 0.463,-0.562 0.614,-1.302 0.45,-2.221 l -2.287,-12.99 c -0.227,-1.186 -0.76,-2.148 -1.603,-2.884 -0.842,-0.737 -1.84,-1.123 -2.993,-1.161 l -11.713,-0.377 c -1.177,-0.038 -2.06,0.289 -2.647,0.979 -0.587,0.69 -0.768,1.629 -0.541,2.815 z"
                 style="fill:#c40d0e;fill-opacity:1;fill-rule:nonzero;stroke:none"
                 id="path317" /></g><g
               id="g319"
               transform="matrix(3.7152542,0,0,3.7777968,-705.17603,16.127361)"><path
                 d="M 0,0 C -1.178,-0.037 -2.06,0.289 -2.646,0.979 -3.234,1.67 -3.415,2.608 -3.188,3.794 l 2.384,13.353 -3.712,-0.119 0.489,2.757 3.712,0.119 0.884,5.007 7.677,0.247 -0.885,-5.007 3.748,0.121 L 10.621,17.516 6.872,17.395 4.273,2.88 8.021,3.001 7.532,0.243 Z"
                 style="fill:#c40d0e;fill-opacity:1;fill-rule:nonzero;stroke:none"
                 id="path321" /></g><g
               id="g323"
               transform="matrix(3.7152542,0,0,3.7777968,-547.18001,21.299921)"><path
                 d="m 0,0 -8.289,-0.267 -0.848,9.534 -4.305,-9.7 -8.289,-0.266 -2.279,24.819 8.289,0.267 1.683,-18.633 4.341,9.736 -0.834,9.064 8.289,0.266 1.682,-18.633 8.41,18.959 3.351,0.108 z"
                 style="fill:#c40d0e;fill-opacity:1;fill-rule:nonzero;stroke:none"
                 id="path325" /></g><g
               id="g327"
               transform="matrix(3.7152542,0,0,3.7777968,-475.11337,107.34072)"><path
                 d="m 0,0 -7.676,-0.247 0.489,2.758 7.676,0.247 z m -3.973,-22.279 -7.675,-0.247 3.576,20.029 7.676,0.247 z"
                 style="fill:#c40d0e;fill-opacity:1;fill-rule:nonzero;stroke:none"
                 id="path329" /></g><g
               id="g331"
               transform="matrix(3.7152542,0,0,3.7777968,-409.53393,25.804565)"><path
                 d="m 0,0 -7.641,-0.246 3.125,17.273 -4.145,-0.132 -3.124,-17.274 -7.677,-0.247 3.613,20.03 16.362,0.527 c 0.913,0.029 1.6,-0.237 2.064,-0.799 0.463,-0.563 0.613,-1.303 0.45,-2.222 z"
                 style="fill:#c40d0e;fill-opacity:1;fill-rule:nonzero;stroke:none"
                 id="path333" /></g><g
               id="g335"
               transform="matrix(3.7152542,0,0,3.7777968,-365.52414,92.12225)"><path
                 d="m 0,0 -2.6,-14.515 4.145,0.133 2.6,14.515 z m -7.269,-19.644 7.929,0.255 0.397,2.249 -7.93,-0.255 c -1.177,-0.038 -2.06,0.289 -2.647,0.979 -0.586,0.69 -0.767,1.629 -0.542,2.815 l 2.325,12.991 c 0.162,0.92 0.583,1.677 1.261,2.277 0.678,0.6 1.473,0.913 2.387,0.942 L 12.273,3.136 8.516,-17.981 c -0.228,-1.187 -0.761,-2.147 -1.603,-2.884 -0.843,-0.736 -1.84,-1.123 -2.993,-1.16 l -11.714,-0.377 z"
                 style="fill:#c40d0e;fill-opacity:1;fill-rule:nonzero;stroke:none"
                 id="path337" /></g><g
               id="g339"
               transform="matrix(3.7152542,0,0,3.7777968,-258.78712,73.668865)"><path
                 d="m 0,0 c 0.913,0.03 1.601,-0.236 2.064,-0.8 0.463,-0.561 0.613,-1.303 0.451,-2.221 l -0.761,-4.39 c -0.203,-1.186 -0.731,-2.147 -1.585,-2.884 -0.855,-0.736 -1.858,-1.123 -3.012,-1.16 l -11.712,-0.377 c -1.177,-0.038 -2.06,0.288 -2.647,0.978 -0.587,0.691 -0.768,1.629 -0.541,2.816 l 0.37,1.924 7.677,0.247 -0.586,-3.086 4.144,0.134 1.073,5.915 -7.929,-0.256 c -1.178,-0.038 -2.061,0.289 -2.648,0.979 -0.587,0.692 -0.767,1.629 -0.541,2.815 l 0.763,4.318 c 0.163,0.919 0.589,1.678 1.279,2.277 0.691,0.601 1.493,0.915 2.406,0.944 L 1.527,8.6 C 2.44,8.629 3.128,8.363 3.591,7.801 4.054,7.238 4.204,6.498 4.041,5.578 L 3.552,2.856 -4.088,2.611 -3.502,5.696 -7.646,5.563 -8.722,-0.28 Z"
                 style="fill:#c40d0e;fill-opacity:1;fill-rule:nonzero;stroke:none"
                 id="path341" /></g></g></g></g></g></g></svg>
